STARTFONT 2.1
FONT -Fondu-Geo 579-Normal-Medium-R-Normal--12-120-75-75-P-71-MacRoman-1
SIZE 12 75 75
FONTBOUNDINGBOX 268 16 0 -3
COMMENT Created by Fondu from a mac NFNT/FONT resource
STARTPROPERTIES 17
FOUNDRY "Fondu"
FAMILY_NAME "Geo 579-Normal"
WEIGHT_NAME "Medium"
SLANT "R"
SETWIDTH_NAME "Normal"
ADD_STYLE_NAME ""
PIXEL_SIZE 12
POINT_SIZE 120
RESOLUTION_X 75
RESOLUTION_Y 75
SPACING "P"
AVERAGE_WIDTH 71
CHARSET_REGISTRY "MacRoman"
CHARSET_ENCODING "1"
FONT_ASCENT 13
FONT_DESCENT 3
FACE_NAME "Geo 579-Normal"
ENDPROPERTIES
CHARS 215
STARTCHAR Eth
ENCODING 1
SWIDTH 736 0
DWIDTH 9 0
BBX 8 9 0 0
BITMAP
7C
46
43
41
F1
41
41
46
7C
ENDCHAR
STARTCHAR eth
ENCODING 2
SWIDTH 606 0
DWIDTH 7 0
BBX 7 9 0 0
BITMAP
24
38
4C
3C
C6
82
82
C6
38
ENDCHAR
STARTCHAR Scaron
ENCODING 5
SWIDTH 616 0
DWIDTH 7 0
BBX 6 12 1 0
BITMAP
48
30
00
78
8C
84
C0
78
0C
84
84
78
ENDCHAR
STARTCHAR scaron
ENCODING 6
SWIDTH 468 0
DWIDTH 6 0
BBX 4 9 1 0
BITMAP
50
60
00
60
90
C0
30
90
60
ENDCHAR
STARTCHAR Yacute
ENCODING 7
SWIDTH 613 0
DWIDTH 7 0
BBX 7 12 0 0
BITMAP
08
10
00
82
44
6C
28
18
10
10
10
10
ENDCHAR
STARTCHAR yacute
ENCODING 8
SWIDTH 556 0
DWIDTH 7 0
BBX 6 12 1 -3
BITMAP
10
20
00
84
CC
48
48
30
30
20
20
60
ENDCHAR
STARTCHAR Thorn
ENCODING 11
SWIDTH 560 0
DWIDTH 7 0
BBX 5 9 1 0
BITMAP
80
F0
98
88
88
98
F0
80
80
ENDCHAR
STARTCHAR thorn
ENCODING 12
SWIDTH 664 0
DWIDTH 8 0
BBX 7 12 1 -3
BITMAP
80
80
80
BC
C6
82
82
C6
B8
80
80
80
ENDCHAR
STARTCHAR onehalf
ENCODING 21
SWIDTH 867 0
DWIDTH 10 0
BBX 9 9 1 0
BITMAP
4200
C200
4400
4800
4900
1280
1100
2100
6380
ENDCHAR
STARTCHAR onequarter
ENCODING 22
SWIDTH 867 0
DWIDTH 10 0
BBX 9 9 1 0
BITMAP
C200
C400
4400
4800
4900
1100
1300
2380
6100
ENDCHAR
STARTCHAR onesuperior
ENCODING 23
SWIDTH 367 0
DWIDTH 4 0
BBX 2 5 1 4
BITMAP
C0
C0
40
40
40
ENDCHAR
STARTCHAR threequarters
ENCODING 24
SWIDTH 868 0
DWIDTH 10 0
BBX 9 9 1 0
BITMAP
E200
4400
C400
2800
C900
1100
1300
2380
4100
ENDCHAR
STARTCHAR threesuperior
ENCODING 25
SWIDTH 367 0
DWIDTH 4 0
BBX 3 6 1 3
BITMAP
E0
40
C0
20
A0
C0
ENDCHAR
STARTCHAR twosuperior
ENCODING 26
SWIDTH 367 0
DWIDTH 4 0
BBX 3 5 1 4
BITMAP
40
A0
40
40
E0
ENDCHAR
STARTCHAR brokenbar
ENCODING 27
SWIDTH 500 0
DWIDTH 6 0
BBX 1 10 2 -2
BITMAP
80
80
80
80
00
00
80
80
80
80
ENDCHAR
STARTCHAR minus
ENCODING 28
SWIDTH 319 0
DWIDTH 4 0
BBX 3 1 0 3
BITMAP
E0
ENDCHAR
STARTCHAR multiply
ENCODING 29
SWIDTH 833 0
DWIDTH 10 0
BBX 6 7 2 0
BITMAP
84
CC
78
30
78
CC
84
ENDCHAR
STARTCHAR space
ENCODING 32
SWIDTH 278 0
DWIDTH 3 0
BBX 0 0 0 -3
BITMAP
ENDCHAR
STARTCHAR exclam
ENCODING 33
SWIDTH 278 0
DWIDTH 3 0
BBX 2 9 1 0
BITMAP
80
80
80
80
80
80
00
C0
80
ENDCHAR
STARTCHAR quotedbl
ENCODING 34
SWIDTH 314 0
DWIDTH 4 0
BBX 2 3 1 5
BITMAP
C0
C0
C0
ENDCHAR
STARTCHAR numbersign
ENCODING 35
SWIDTH 769 0
DWIDTH 9 0
BBX 8 9 1 0
BITMAP
0A
12
12
7F
24
FE
48
48
58
ENDCHAR
STARTCHAR dollar
ENCODING 36
SWIDTH 556 0
DWIDTH 7 0
BBX 5 11 1 -1
BITMAP
20
70
A8
A8
E0
70
28
A8
A8
70
20
ENDCHAR
STARTCHAR percent
ENCODING 37
SWIDTH 875 0
DWIDTH 10 0
BBX 9 9 1 0
BITMAP
4400
A400
A400
A800
4800
1300
1480
2480
2300
ENDCHAR
STARTCHAR ampersand
ENCODING 38
SWIDTH 685 0
DWIDTH 8 0
BBX 8 9 0 0
BITMAP
18
24
24
18
78
CD
86
CE
79
ENDCHAR
STARTCHAR quotesingle
ENCODING 39
SWIDTH 163 0
DWIDTH 2 0
BBX 1 3 1 5
BITMAP
80
80
80
ENDCHAR
STARTCHAR parenleft
ENCODING 40
SWIDTH 398 0
DWIDTH 5 0
BBX 3 12 1 -3
BITMAP
20
60
40
80
80
80
80
80
80
40
60
20
ENDCHAR
STARTCHAR parenright
ENCODING 41
SWIDTH 398 0
DWIDTH 5 0
BBX 3 12 1 -3
BITMAP
80
C0
40
20
20
20
20
20
20
40
C0
80
ENDCHAR
STARTCHAR asterisk
ENCODING 42
SWIDTH 500 0
DWIDTH 6 0
BBX 4 5 1 4
BITMAP
60
B0
F0
60
90
ENDCHAR
STARTCHAR plus
ENCODING 43
SWIDTH 833 0
DWIDTH 10 0
BBX 7 7 1 0
BITMAP
10
10
10
FE
10
10
10
ENDCHAR
STARTCHAR comma
ENCODING 44
SWIDTH 278 0
DWIDTH 3 0
BBX 1 4 1 -2
BITMAP
80
80
80
80
ENDCHAR
STARTCHAR hyphen
ENCODING 45
SWIDTH 319 0
DWIDTH 4 0
BBX 3 1 0 3
BITMAP
E0
ENDCHAR
STARTCHAR period
ENCODING 46
SWIDTH 278 0
DWIDTH 3 0
BBX 2 2 0 0
BITMAP
C0
C0
ENDCHAR
STARTCHAR slash
ENCODING 47
SWIDTH 278 0
DWIDTH 3 0
BBX 3 10 0 -1
BITMAP
20
20
20
40
40
40
40
80
80
80
ENDCHAR
STARTCHAR zero
ENCODING 48
SWIDTH 556 0
DWIDTH 7 0
BBX 5 9 1 0
BITMAP
70
88
88
88
88
88
88
88
70
ENDCHAR
STARTCHAR one
ENCODING 49
SWIDTH 556 0
DWIDTH 7 0
BBX 3 9 1 0
BITMAP
20
E0
A0
20
20
20
20
20
20
ENDCHAR
STARTCHAR two
ENCODING 50
SWIDTH 556 0
DWIDTH 7 0
BBX 5 9 1 0
BITMAP
70
88
08
18
10
20
60
40
F8
ENDCHAR
STARTCHAR three
ENCODING 51
SWIDTH 556 0
DWIDTH 7 0
BBX 5 9 1 0
BITMAP
F8
10
20
20
70
08
08
88
70
ENDCHAR
STARTCHAR four
ENCODING 52
SWIDTH 556 0
DWIDTH 7 0
BBX 5 9 1 0
BITMAP
10
10
30
50
50
90
F8
10
10
ENDCHAR
STARTCHAR five
ENCODING 53
SWIDTH 556 0
DWIDTH 7 0
BBX 5 9 1 0
BITMAP
F0
80
80
F0
98
08
08
98
F0
ENDCHAR
STARTCHAR six
ENCODING 54
SWIDTH 556 0
DWIDTH 7 0
BBX 5 9 1 0
BITMAP
10
20
20
40
70
88
88
88
70
ENDCHAR
STARTCHAR seven
ENCODING 55
SWIDTH 556 0
DWIDTH 7 0
BBX 4 9 2 0
BITMAP
F0
10
20
20
20
40
40
C0
80
ENDCHAR
STARTCHAR eight
ENCODING 56
SWIDTH 556 0
DWIDTH 7 0
BBX 5 9 1 0
BITMAP
70
88
88
88
70
88
88
88
70
ENDCHAR
STARTCHAR nine
ENCODING 57
SWIDTH 556 0
DWIDTH 7 0
BBX 6 9 0 0
BITMAP
78
C4
84
8C
78
18
10
20
60
ENDCHAR
STARTCHAR colon
ENCODING 58
SWIDTH 278 0
DWIDTH 3 0
BBX 2 6 0 0
BITMAP
C0
C0
00
00
C0
C0
ENDCHAR
STARTCHAR semicolon
ENCODING 59
SWIDTH 278 0
DWIDTH 3 0
BBX 2 8 0 -2
BITMAP
C0
C0
00
00
00
40
80
80
ENDCHAR
STARTCHAR less
ENCODING 60
SWIDTH 833 0
DWIDTH 10 0
BBX 6 7 2 0
BITMAP
04
1C
60
80
60
1C
04
ENDCHAR
STARTCHAR equal
ENCODING 61
SWIDTH 833 0
DWIDTH 10 0
BBX 6 3 2 2
BITMAP
FC
00
FC
ENDCHAR
STARTCHAR greater
ENCODING 62
SWIDTH 833 0
DWIDTH 10 0
BBX 6 7 2 0
BITMAP
80
E0
18
04
18
E0
80
ENDCHAR
STARTCHAR question
ENCODING 63
SWIDTH 491 0
DWIDTH 6 0
BBX 5 9 1 0
BITMAP
70
88
08
10
60
40
00
40
60
ENDCHAR
STARTCHAR at
ENCODING 64
SWIDTH 1000 0
DWIDTH 12 0
BBX 10 11 1 -2
BITMAP
1E00
2180
40C0
5E40
9240
A240
A480
9B00
4000
6100
3E00
ENDCHAR
STARTCHAR A
ENCODING 65
SWIDTH 727 0
DWIDTH 9 0
BBX 8 9 0 0
BITMAP
18
18
3C
24
24
46
7E
C3
81
ENDCHAR
STARTCHAR B
ENCODING 66
SWIDTH 620 0
DWIDTH 7 0
BBX 6 9 1 0
BITMAP
F0
88
88
88
F8
8C
84
8C
F8
ENDCHAR
STARTCHAR C
ENCODING 67
SWIDTH 750 0
DWIDTH 9 0
BBX 7 9 1 0
BITMAP
3C
62
C0
80
80
80
C0
62
3C
ENDCHAR
STARTCHAR D
ENCODING 68
SWIDTH 736 0
DWIDTH 9 0
BBX 7 9 1 0
BITMAP
F8
8C
86
82
82
82
86
8C
F8
ENDCHAR
STARTCHAR E
ENCODING 69
SWIDTH 569 0
DWIDTH 7 0
BBX 4 9 1 0
BITMAP
F0
80
80
80
F0
80
80
80
F0
ENDCHAR
STARTCHAR F
ENCODING 70
SWIDTH 551 0
DWIDTH 7 0
BBX 4 9 1 0
BITMAP
F0
80
80
80
F0
80
80
80
80
ENDCHAR
STARTCHAR G
ENCODING 71
SWIDTH 875 0
DWIDTH 10 0
BBX 9 9 1 0
BITMAP
3E00
6300
C000
8000
8780
8080
C080
6300
3E00
ENDCHAR
STARTCHAR H
ENCODING 72
SWIDTH 775 0
DWIDTH 9 0
BBX 7 9 1 0
BITMAP
82
82
82
82
FE
82
82
82
82
ENDCHAR
STARTCHAR I
ENCODING 73
SWIDTH 278 0
DWIDTH 3 0
BBX 1 9 1 0
BITMAP
80
80
80
80
80
80
80
80
80
ENDCHAR
STARTCHAR J
ENCODING 74
SWIDTH 477 0
DWIDTH 6 0
BBX 4 9 1 0
BITMAP
F0
10
10
10
10
10
10
30
E0
ENDCHAR
STARTCHAR K
ENCODING 75
SWIDTH 655 0
DWIDTH 8 0
BBX 6 9 1 0
BITMAP
8C
98
90
A0
C0
E0
B0
98
8C
ENDCHAR
STARTCHAR L
ENCODING 76
SWIDTH 481 0
DWIDTH 6 0
BBX 4 9 1 0
BITMAP
80
80
80
80
80
80
80
80
F0
ENDCHAR
STARTCHAR M
ENCODING 77
SWIDTH 993 0
DWIDTH 12 0
BBX 10 9 1 0
BITMAP
8040
C0C0
C0C0
A140
B340
9240
8C40
8C40
8440
ENDCHAR
STARTCHAR N
ENCODING 78
SWIDTH 773 0
DWIDTH 9 0
BBX 7 9 1 0
BITMAP
82
C2
E2
B2
92
8A
8E
86
82
ENDCHAR
STARTCHAR O
ENCODING 79
SWIDTH 891 0
DWIDTH 11 0
BBX 9 9 1 0
BITMAP
3E00
6300
C180
8080
8080
8080
C180
6300
3E00
ENDCHAR
STARTCHAR P
ENCODING 80
SWIDTH 560 0
DWIDTH 7 0
BBX 5 9 1 0
BITMAP
F0
98
88
88
98
F0
80
80
80
ENDCHAR
STARTCHAR Q
ENCODING 81
SWIDTH 891 0
DWIDTH 11 0
BBX 9 9 1 0
BITMAP
3E00
6300
C180
8080
8080
8080
C380
6300
3E80
ENDCHAR
STARTCHAR R
ENCODING 82
SWIDTH 616 0
DWIDTH 7 0
BBX 6 9 1 0
BITMAP
F8
8C
84
84
98
E0
B0
98
84
ENDCHAR
STARTCHAR S
ENCODING 83
SWIDTH 616 0
DWIDTH 7 0
BBX 6 9 1 0
BITMAP
78
8C
84
C0
78
0C
84
84
78
ENDCHAR
STARTCHAR T
ENCODING 84
SWIDTH 507 0
DWIDTH 6 0
BBX 5 9 0 0
BITMAP
F8
20
20
20
20
20
20
20
20
ENDCHAR
STARTCHAR U
ENCODING 85
SWIDTH 748 0
DWIDTH 9 0
BBX 7 9 1 0
BITMAP
82
82
82
82
82
82
82
C6
3C
ENDCHAR
STARTCHAR V
ENCODING 86
SWIDTH 639 0
DWIDTH 8 0
BBX 7 9 0 0
BITMAP
82
82
44
44
44
28
28
28
10
ENDCHAR
STARTCHAR W
ENCODING 87
SWIDTH 972 0
DWIDTH 12 0
BBX 11 9 0 0
BITMAP
8420
8620
CA20
4A40
4A40
5140
3180
3180
2080
ENDCHAR
STARTCHAR X
ENCODING 88
SWIDTH 660 0
DWIDTH 8 0
BBX 7 9 0 0
BITMAP
82
44
6C
28
10
28
6C
44
82
ENDCHAR
STARTCHAR Y
ENCODING 89
SWIDTH 613 0
DWIDTH 7 0
BBX 7 9 0 0
BITMAP
82
44
6C
28
38
10
10
10
10
ENDCHAR
STARTCHAR Z
ENCODING 90
SWIDTH 620 0
DWIDTH 7 0
BBX 6 9 0 0
BITMAP
FC
0C
08
10
30
20
40
C0
FC
ENDCHAR
STARTCHAR bracketleft
ENCODING 91
SWIDTH 308 0
DWIDTH 4 0
BBX 2 12 1 -3
BITMAP
C0
80
80
80
80
80
80
80
80
80
80
C0
ENDCHAR
STARTCHAR backslash
ENCODING 92
SWIDTH 278 0
DWIDTH 3 0
BBX 3 10 0 -1
BITMAP
80
80
80
40
40
40
40
20
20
20
ENDCHAR
STARTCHAR bracketright
ENCODING 93
SWIDTH 308 0
DWIDTH 4 0
BBX 3 12 0 -3
BITMAP
E0
20
20
20
20
20
20
20
20
20
20
E0
ENDCHAR
STARTCHAR asciicircum
ENCODING 94
SWIDTH 1000 0
DWIDTH 12 0
BBX 6 4 3 5
BITMAP
30
78
48
84
ENDCHAR
STARTCHAR underscore
ENCODING 95
SWIDTH 500 0
DWIDTH 6 0
BBX 5 1 0 -3
BITMAP
F8
ENDCHAR
STARTCHAR grave
ENCODING 96
SWIDTH 500 0
DWIDTH 6 0
BBX 2 2 2 7
BITMAP
80
40
ENDCHAR
STARTCHAR a
ENCODING 97
SWIDTH 664 0
DWIDTH 8 0
BBX 7 6 0 0
BITMAP
7A
C6
82
82
C6
3A
ENDCHAR
STARTCHAR b
ENCODING 98
SWIDTH 664 0
DWIDTH 8 0
BBX 7 9 1 0
BITMAP
80
80
80
BC
C6
82
82
C6
B8
ENDCHAR
STARTCHAR c
ENCODING 99
SWIDTH 536 0
DWIDTH 6 0
BBX 6 6 0 0
BITMAP
3C
C4
80
80
C4
3C
ENDCHAR
STARTCHAR d
ENCODING 100
SWIDTH 674 0
DWIDTH 8 0
BBX 7 9 0 0
BITMAP
02
02
02
3A
C6
82
82
C6
7A
ENDCHAR
STARTCHAR e
ENCODING 101
SWIDTH 625 0
DWIDTH 7 0
BBX 7 6 0 0
BITMAP
38
C6
FE
80
46
3C
ENDCHAR
STARTCHAR f
ENCODING 102
SWIDTH 309 0
DWIDTH 4 0
BBX 3 9 0 0
BITMAP
20
40
40
E0
40
40
40
40
40
ENDCHAR
STARTCHAR g
ENCODING 103
SWIDTH 664 0
DWIDTH 8 0
BBX 6 9 1 -3
BITMAP
74
CC
84
84
CC
74
04
C8
78
ENDCHAR
STARTCHAR h
ENCODING 104
SWIDTH 593 0
DWIDTH 7 0
BBX 5 9 1 0
BITMAP
80
80
80
F0
88
88
88
88
88
ENDCHAR
STARTCHAR i
ENCODING 105
SWIDTH 250 0
DWIDTH 3 0
BBX 2 9 1 0
BITMAP
C0
80
00
80
80
80
80
80
80
ENDCHAR
STARTCHAR j
ENCODING 106
SWIDTH 259 0
DWIDTH 3 0
BBX 2 12 0 -3
BITMAP
40
C0
00
40
40
40
40
40
40
40
C0
80
ENDCHAR
STARTCHAR k
ENCODING 107
SWIDTH 542 0
DWIDTH 7 0
BBX 4 9 1 0
BITMAP
80
80
80
90
A0
C0
C0
A0
90
ENDCHAR
STARTCHAR l
ENCODING 108
SWIDTH 250 0
DWIDTH 3 0
BBX 1 9 1 0
BITMAP
80
80
80
80
80
80
80
80
80
ENDCHAR
STARTCHAR m
ENCODING 109
SWIDTH 907 0
DWIDTH 11 0
BBX 9 6 1 0
BITMAP
F700
8880
8880
8880
8880
8880
ENDCHAR
STARTCHAR n
ENCODING 110
SWIDTH 593 0
DWIDTH 7 0
BBX 5 6 1 0
BITMAP
F0
88
88
88
88
88
ENDCHAR
STARTCHAR o
ENCODING 111
SWIDTH 618 0
DWIDTH 7 0
BBX 7 6 0 0
BITMAP
38
C6
82
82
C6
38
ENDCHAR
STARTCHAR p
ENCODING 112
SWIDTH 664 0
DWIDTH 8 0
BBX 7 9 1 -3
BITMAP
BC
C6
82
82
C6
B8
80
80
80
ENDCHAR
STARTCHAR q
ENCODING 113
SWIDTH 664 0
DWIDTH 8 0
BBX 7 9 0 -3
BITMAP
7A
C6
82
82
C6
3A
02
02
02
ENDCHAR
STARTCHAR r
ENCODING 114
SWIDTH 356 0
DWIDTH 4 0
BBX 3 6 1 0
BITMAP
E0
80
80
80
80
80
ENDCHAR
STARTCHAR s
ENCODING 115
SWIDTH 468 0
DWIDTH 6 0
BBX 4 6 1 0
BITMAP
60
90
C0
30
90
60
ENDCHAR
STARTCHAR t
ENCODING 116
SWIDTH 315 0
DWIDTH 4 0
BBX 3 8 0 0
BITMAP
40
40
E0
40
40
40
40
60
ENDCHAR
STARTCHAR u
ENCODING 117
SWIDTH 579 0
DWIDTH 7 0
BBX 5 6 1 0
BITMAP
88
88
88
88
88
70
ENDCHAR
STARTCHAR v
ENCODING 118
SWIDTH 560 0
DWIDTH 7 0
BBX 6 6 1 0
BITMAP
84
CC
48
48
30
30
ENDCHAR
STARTCHAR w
ENCODING 119
SWIDTH 843 0
DWIDTH 10 0
BBX 9 6 1 0
BITMAP
8880
9480
5500
5500
6300
2200
ENDCHAR
STARTCHAR x
ENCODING 120
SWIDTH 551 0
DWIDTH 7 0
BBX 6 6 0 0
BITMAP
CC
48
30
30
48
CC
ENDCHAR
STARTCHAR y
ENCODING 121
SWIDTH 556 0
DWIDTH 7 0
BBX 6 9 1 -3
BITMAP
84
CC
48
48
30
30
20
20
60
ENDCHAR
STARTCHAR z
ENCODING 122
SWIDTH 477 0
DWIDTH 6 0
BBX 4 6 1 0
BITMAP
F0
20
20
40
40
F0
ENDCHAR
STARTCHAR braceleft
ENCODING 123
SWIDTH 500 0
DWIDTH 6 0
BBX 4 11 1 -2
BITMAP
30
20
20
20
20
C0
20
20
20
20
30
ENDCHAR
STARTCHAR bar
ENCODING 124
SWIDTH 500 0
DWIDTH 6 0
BBX 1 12 2 -3
BITMAP
80
80
80
80
80
80
80
80
80
80
80
80
ENDCHAR
STARTCHAR braceright
ENCODING 125
SWIDTH 500 0
DWIDTH 6 0
BBX 4 11 1 -2
BITMAP
C0
40
40
40
40
30
40
40
40
40
C0
ENDCHAR
STARTCHAR asciitilde
ENCODING 126
SWIDTH 833 0
DWIDTH 10 0
BBX 8 2 1 3
BITMAP
01
FE
ENDCHAR
STARTCHAR Adieresis
ENCODING 128
SWIDTH 727 0
DWIDTH 9 0
BBX 8 12 0 0
BITMAP
14
00
08
18
14
14
36
22
62
7F
C1
C1
ENDCHAR
STARTCHAR Aring
ENCODING 129
SWIDTH 727 0
DWIDTH 9 0
BBX 8 13 0 0
BITMAP
08
14
14
08
08
08
14
14
22
22
7E
C1
81
ENDCHAR
STARTCHAR Ccedilla
ENCODING 130
SWIDTH 750 0
DWIDTH 9 0
BBX 7 12 1 -3
BITMAP
3E
62
C0
80
80
80
C0
62
1C
1C
04
1C
ENDCHAR
STARTCHAR Eacute
ENCODING 131
SWIDTH 569 0
DWIDTH 7 0
BBX 4 12 1 0
BITMAP
30
20
00
F0
80
80
80
F0
80
80
80
F0
ENDCHAR
STARTCHAR Ntilde
ENCODING 132
SWIDTH 773 0
DWIDTH 9 0
BBX 7 12 1 0
BITMAP
04
38
00
82
C2
E2
A2
92
9A
8E
86
82
ENDCHAR
STARTCHAR Odieresis
ENCODING 133
SWIDTH 891 0
DWIDTH 11 0
BBX 9 12 1 0
BITMAP
1400
0000
0000
3E00
6300
C180
8080
8080
8080
C180
6300
3E00
ENDCHAR
STARTCHAR Udieresis
ENCODING 134
SWIDTH 748 0
DWIDTH 9 0
BBX 7 12 1 0
BITMAP
28
00
82
82
82
82
82
82
82
82
44
3C
ENDCHAR
STARTCHAR aacute
ENCODING 135
SWIDTH 664 0
DWIDTH 8 0
BBX 7 9 0 0
BITMAP
08
10
00
7A
C6
82
82
C6
3A
ENDCHAR
STARTCHAR agrave
ENCODING 136
SWIDTH 664 0
DWIDTH 8 0
BBX 7 9 0 0
BITMAP
20
10
00
7A
C6
82
82
C6
3A
ENDCHAR
STARTCHAR acircumflex
ENCODING 137
SWIDTH 664 0
DWIDTH 8 0
BBX 7 9 0 0
BITMAP
30
28
00
7A
C6
82
82
C6
3A
ENDCHAR
STARTCHAR adieresis
ENCODING 138
SWIDTH 664 0
DWIDTH 8 0
BBX 7 9 0 0
BITMAP
28
00
00
3A
C6
82
82
C6
3A
ENDCHAR
STARTCHAR atilde
ENCODING 139
SWIDTH 664 0
DWIDTH 8 0
BBX 7 9 0 0
BITMAP
3C
40
00
7A
C6
82
82
C6
3A
ENDCHAR
STARTCHAR aring
ENCODING 140
SWIDTH 664 0
DWIDTH 8 0
BBX 7 10 0 0
BITMAP
10
28
28
10
7A
C6
82
82
C6
3A
ENDCHAR
STARTCHAR ccedilla
ENCODING 141
SWIDTH 536 0
DWIDTH 6 0
BBX 6 9 0 -3
BITMAP
7C
C4
80
80
CC
30
18
08
38
ENDCHAR
STARTCHAR eacute
ENCODING 142
SWIDTH 625 0
DWIDTH 7 0
BBX 7 9 0 0
BITMAP
08
10
00
38
C6
FE
80
46
3C
ENDCHAR
STARTCHAR egrave
ENCODING 143
SWIDTH 625 0
DWIDTH 7 0
BBX 7 9 0 0
BITMAP
20
10
00
38
C6
FE
80
46
3C
ENDCHAR
STARTCHAR ecircumflex
ENCODING 144
SWIDTH 625 0
DWIDTH 7 0
BBX 7 9 0 0
BITMAP
10
28
00
38
C6
FE
80
46
3C
ENDCHAR
STARTCHAR edieresis
ENCODING 145
SWIDTH 625 0
DWIDTH 7 0
BBX 7 9 0 0
BITMAP
28
00
00
38
C6
FE
80
46
38
ENDCHAR
STARTCHAR iacute
ENCODING 146
SWIDTH 250 0
DWIDTH 3 0
BBX 2 9 1 0
BITMAP
40
80
00
80
80
80
80
80
80
ENDCHAR
STARTCHAR igrave
ENCODING 147
SWIDTH 250 0
DWIDTH 3 0
BBX 2 9 0 0
BITMAP
80
40
00
40
40
40
40
40
40
ENDCHAR
STARTCHAR icircumflex
ENCODING 148
SWIDTH 250 0
DWIDTH 3 0
BBX 3 9 0 0
BITMAP
40
A0
00
40
40
40
40
40
40
ENDCHAR
STARTCHAR idieresis
ENCODING 149
SWIDTH 250 0
DWIDTH 3 0
BBX 3 9 0 0
BITMAP
A0
00
40
40
40
40
40
40
40
ENDCHAR
STARTCHAR ntilde
ENCODING 150
SWIDTH 593 0
DWIDTH 7 0
BBX 5 9 1 0
BITMAP
70
40
00
F0
88
88
88
88
88
ENDCHAR
STARTCHAR oacute
ENCODING 151
SWIDTH 618 0
DWIDTH 7 0
BBX 7 9 0 0
BITMAP
08
10
00
38
C6
82
82
C6
38
ENDCHAR
STARTCHAR ograve
ENCODING 152
SWIDTH 618 0
DWIDTH 7 0
BBX 7 9 0 0
BITMAP
20
10
00
38
C6
82
82
C6
38
ENDCHAR
STARTCHAR ocircumflex
ENCODING 153
SWIDTH 618 0
DWIDTH 7 0
BBX 7 9 0 0
BITMAP
18
28
00
38
C6
82
82
C6
38
ENDCHAR
STARTCHAR odieresis
ENCODING 154
SWIDTH 618 0
DWIDTH 7 0
BBX 7 9 0 0
BITMAP
28
00
00
38
C6
82
82
C6
38
ENDCHAR
STARTCHAR otilde
ENCODING 155
SWIDTH 618 0
DWIDTH 7 0
BBX 7 9 0 0
BITMAP
38
28
00
38
C6
82
82
C6
38
ENDCHAR
STARTCHAR uacute
ENCODING 156
SWIDTH 579 0
DWIDTH 7 0
BBX 5 9 1 0
BITMAP
10
20
00
88
88
88
88
88
70
ENDCHAR
STARTCHAR ugrave
ENCODING 157
SWIDTH 579 0
DWIDTH 7 0
BBX 5 9 1 0
BITMAP
40
20
00
88
88
88
88
88
70
ENDCHAR
STARTCHAR ucircumflex
ENCODING 158
SWIDTH 579 0
DWIDTH 7 0
BBX 5 9 1 0
BITMAP
20
50
00
88
88
88
88
88
70
ENDCHAR
STARTCHAR udieresis
ENCODING 159
SWIDTH 579 0
DWIDTH 7 0
BBX 5 9 1 0
BITMAP
50
00
88
88
88
88
88
88
70
ENDCHAR
STARTCHAR dagger
ENCODING 160
SWIDTH 500 0
DWIDTH 6 0
BBX 6 9 0 0
BITMAP
10
10
FC
10
10
10
10
30
10
ENDCHAR
STARTCHAR degree
ENCODING 161
SWIDTH 329 0
DWIDTH 4 0
BBX 4 4 0 5
BITMAP
60
90
90
60
ENDCHAR
STARTCHAR cent
ENCODING 162
SWIDTH 556 0
DWIDTH 7 0
BBX 5 9 1 0
BITMAP
20
20
78
A0
A0
A0
78
20
20
ENDCHAR
STARTCHAR sterling
ENCODING 163
SWIDTH 556 0
DWIDTH 7 0
BBX 7 9 1 0
BITMAP
70
88
80
80
F0
40
40
80
FE
ENDCHAR
STARTCHAR section
ENCODING 164
SWIDTH 500 0
DWIDTH 6 0
BBX 4 10 1 -1
BITMAP
70
90
40
E0
90
D0
70
20
D0
60
ENDCHAR
STARTCHAR bullet
ENCODING 165
SWIDTH 590 0
DWIDTH 7 0
BBX 3 4 2 3
BITMAP
40
E0
E0
40
ENDCHAR
STARTCHAR paragraph
ENCODING 166
SWIDTH 500 0
DWIDTH 6 0
BBX 6 9 0 0
BITMAP
7C
E8
E8
E8
28
28
28
28
28
ENDCHAR
STARTCHAR germandbls
ENCODING 167
SWIDTH 616 0
DWIDTH 7 0
BBX 7 9 0 0
BITMAP
38
44
44
D8
46
42
42
46
5C
ENDCHAR
STARTCHAR registered
ENCODING 168
SWIDTH 833 0
DWIDTH 10 0
BBX 8 9 1 0
BITMAP
3C
42
7D
A5
B9
A9
65
42
3C
ENDCHAR
STARTCHAR copyright
ENCODING 169
SWIDTH 833 0
DWIDTH 10 0
BBX 8 9 1 0
BITMAP
18
24
5A
A5
A1
A5
5A
24
18
ENDCHAR
STARTCHAR trademark
ENCODING 170
SWIDTH 833 0
DWIDTH 10 0
BBX 7 4 1 5
BITMAP
F2
5E
5E
56
ENDCHAR
STARTCHAR acute
ENCODING 171
SWIDTH 500 0
DWIDTH 6 0
BBX 2 2 3 7
BITMAP
40
80
ENDCHAR
STARTCHAR dieresis
ENCODING 172
SWIDTH 500 0
DWIDTH 6 0
BBX 4 1 1 8
BITMAP
90
ENDCHAR
STARTCHAR AE
ENCODING 174
SWIDTH 884 0
DWIDTH 11 0
BBX 9 9 0 0
BITMAP
0F80
0C00
1400
3400
2780
6400
7C00
C400
8780
ENDCHAR
STARTCHAR Oslash
ENCODING 175
SWIDTH 891 0
DWIDTH 11 0
BBX 9 11 1 -1
BITMAP
0100
3F00
6300
C580
8480
8880
9080
D180
6300
7E00
4000
ENDCHAR
STARTCHAR plusminus
ENCODING 177
SWIDTH 833 0
DWIDTH 10 0
BBX 7 7 1 0
BITMAP
10
10
FE
10
10
00
FE
ENDCHAR
STARTCHAR yen
ENCODING 180
SWIDTH 556 0
DWIDTH 7 0
BBX 7 9 0 0
BITMAP
84
44
48
EE
28
FE
10
10
10
ENDCHAR
STARTCHAR mu
ENCODING 181
SWIDTH 590 0
DWIDTH 7 0
BBX 6 9 0 -3
BITMAP
64
44
44
4C
CC
BC
80
80
80
ENDCHAR
STARTCHAR ordfeminine
ENCODING 187
SWIDTH 498 0
DWIDTH 6 0
BBX 5 4 0 5
BITMAP
78
88
88
78
ENDCHAR
STARTCHAR ordmasculine
ENCODING 188
SWIDTH 464 0
DWIDTH 6 0
BBX 5 4 0 5
BITMAP
70
88
88
70
ENDCHAR
STARTCHAR ae
ENCODING 190
SWIDTH 1072 0
DWIDTH 13 0
BBX 12 6 0 0
BITMAP
7AE0
C710
83F0
8200
C710
3AE0
ENDCHAR
STARTCHAR oslash
ENCODING 191
SWIDTH 618 0
DWIDTH 7 0
BBX 7 8 0 -1
BITMAP
02
7C
CE
92
A2
E6
78
80
ENDCHAR
STARTCHAR questiondown
ENCODING 192
SWIDTH 491 0
DWIDTH 6 0
BBX 5 9 0 0
BITMAP
10
30
00
10
30
C0
80
88
70
ENDCHAR
STARTCHAR exclamdown
ENCODING 193
SWIDTH 278 0
DWIDTH 3 0
BBX 2 9 1 0
BITMAP
C0
80
00
80
80
80
80
80
80
ENDCHAR
STARTCHAR logicalnot
ENCODING 194
SWIDTH 833 0
DWIDTH 10 0
BBX 7 3 2 2
BITMAP
FE
02
02
ENDCHAR
STARTCHAR florin
ENCODING 196
SWIDTH 556 0
DWIDTH 7 0
BBX 6 12 0 -3
BITMAP
0C
18
10
3C
10
30
20
20
20
20
60
C0
ENDCHAR
STARTCHAR guillemotleft
ENCODING 199
SWIDTH 514 0
DWIDTH 6 0
BBX 4 5 1 0
BITMAP
50
90
A0
90
50
ENDCHAR
STARTCHAR guillemotright
ENCODING 200
SWIDTH 514 0
DWIDTH 6 0
BBX 4 5 1 0
BITMAP
A0
90
50
90
A0
ENDCHAR
STARTCHAR ellipsis
ENCODING 201
SWIDTH 1000 0
DWIDTH 12 0
BBX 10 2 1 0
BITMAP
CCC0
CCC0
ENDCHAR
STARTCHAR nbspace
ENCODING 202
SWIDTH 556 0
DWIDTH 7 0
BBX 0 0 0 -3
BITMAP
ENDCHAR
STARTCHAR Agrave
ENCODING 203
SWIDTH 727 0
DWIDTH 9 0
BBX 8 12 0 0
BITMAP
10
08
00
18
18
3C
24
64
42
7E
C3
81
ENDCHAR
STARTCHAR Atilde
ENCODING 204
SWIDTH 727 0
DWIDTH 9 0
BBX 8 12 0 0
BITMAP
04
1C
20
10
18
38
24
24
46
7E
C3
81
ENDCHAR
STARTCHAR Otilde
ENCODING 205
SWIDTH 891 0
DWIDTH 11 0
BBX 9 12 1 0
BITMAP
0200
1C00
0000
3E00
6300
C180
8080
8080
8080
C180
6300
3E00
ENDCHAR
STARTCHAR OE
ENCODING 206
SWIDTH 1185 0
DWIDTH 14 0
BBX 12 9 1 0
BITMAP
3EF0
6180
C180
8080
80F0
8080
C180
6180
3EF0
ENDCHAR
STARTCHAR oe
ENCODING 207
SWIDTH 1060 0
DWIDTH 13 0
BBX 12 6 0 0
BITMAP
7DE0
8210
83F0
8200
C210
3DE0
ENDCHAR
STARTCHAR endash
ENCODING 208
SWIDTH 500 0
DWIDTH 6 0
BBX 5 1 0 3
BITMAP
F8
ENDCHAR
STARTCHAR emdash
ENCODING 209
SWIDTH 1000 0
DWIDTH 12 0
BBX 11 1 0 3
BITMAP
FFE0
ENDCHAR
STARTCHAR quotedblleft
ENCODING 210
SWIDTH 491 0
DWIDTH 6 0
BBX 4 3 1 6
BITMAP
50
90
B0
ENDCHAR
STARTCHAR quotedblright
ENCODING 211
SWIDTH 491 0
DWIDTH 6 0
BBX 4 3 1 6
BITMAP
D0
90
A0
ENDCHAR
STARTCHAR quoteleft
ENCODING 212
SWIDTH 278 0
DWIDTH 3 0
BBX 2 3 1 6
BITMAP
40
80
80
ENDCHAR
STARTCHAR quoteright
ENCODING 213
SWIDTH 278 0
DWIDTH 3 0
BBX 1 3 1 6
BITMAP
80
80
80
ENDCHAR
STARTCHAR divide
ENCODING 214
SWIDTH 833 0
DWIDTH 10 0
BBX 6 6 2 1
BITMAP
30
30
00
FC
30
30
ENDCHAR
STARTCHAR ydieresis
ENCODING 216
SWIDTH 556 0
DWIDTH 7 0
BBX 6 12 1 -3
BITMAP
50
00
8C
8C
88
58
50
50
20
20
60
40
ENDCHAR
STARTCHAR Ydieresis
ENCODING 217
SWIDTH 613 0
DWIDTH 7 0
BBX 7 12 0 0
BITMAP
28
00
82
C6
44
28
28
10
10
10
10
10
ENDCHAR
STARTCHAR currency
ENCODING 219
SWIDTH 606 0
DWIDTH 7 0
BBX 6 6 1 2
BITMAP
AC
D8
88
88
F8
84
ENDCHAR
STARTCHAR guilsinglleft
ENCODING 220
SWIDTH 322 0
DWIDTH 4 0
BBX 2 5 1 0
BITMAP
40
80
80
80
40
ENDCHAR
STARTCHAR guilsinglright
ENCODING 221
SWIDTH 322 0
DWIDTH 4 0
BBX 2 5 1 0
BITMAP
80
40
40
40
80
ENDCHAR
STARTCHAR daggerdbl
ENCODING 224
SWIDTH 500 0
DWIDTH 6 0
BBX 4 9 1 0
BITMAP
60
20
F0
20
60
20
F0
20
60
ENDCHAR
STARTCHAR periodcentered
ENCODING 225
SWIDTH 278 0
DWIDTH 3 0
BBX 2 2 1 4
BITMAP
C0
C0
ENDCHAR
STARTCHAR quotesinglbase
ENCODING 226
SWIDTH 278 0
DWIDTH 3 0
BBX 1 3 1 -2
BITMAP
80
80
80
ENDCHAR
STARTCHAR quotedblbase
ENCODING 227
SWIDTH 491 0
DWIDTH 6 0
BBX 4 3 1 -2
BITMAP
D0
90
A0
ENDCHAR
STARTCHAR perthousand
ENCODING 228
SWIDTH 1252 0
DWIDTH 15 0
BBX 13 9 1 0
BITMAP
4400
A400
A400
A800
4800
1310
14A8
24A8
2310
ENDCHAR
STARTCHAR Acircumflex
ENCODING 229
SWIDTH 727 0
DWIDTH 9 0
BBX 8 12 0 0
BITMAP
18
34
00
18
18
3C
24
64
42
7E
C3
81
ENDCHAR
STARTCHAR Ecircumflex
ENCODING 230
SWIDTH 569 0
DWIDTH 7 0
BBX 4 12 1 0
BITMAP
60
50
00
F0
80
80
80
F0
80
80
80
F0
ENDCHAR
STARTCHAR Aacute
ENCODING 231
SWIDTH 727 0
DWIDTH 9 0
BBX 8 12 0 0
BITMAP
08
10
00
18
18
3C
24
64
42
7E
C3
81
ENDCHAR
STARTCHAR Edieresis
ENCODING 232
SWIDTH 569 0
DWIDTH 7 0
BBX 4 12 1 0
BITMAP
50
00
00
F0
80
80
80
F0
80
80
80
F0
ENDCHAR
STARTCHAR Egrave
ENCODING 233
SWIDTH 569 0
DWIDTH 7 0
BBX 4 12 1 0
BITMAP
40
20
00
F0
80
80
80
F0
80
80
80
F0
ENDCHAR
STARTCHAR Iacute
ENCODING 234
SWIDTH 278 0
DWIDTH 3 0
BBX 2 12 1 0
BITMAP
40
80
00
80
80
80
80
80
80
80
80
80
ENDCHAR
STARTCHAR Icircumflex
ENCODING 235
SWIDTH 278 0
DWIDTH 3 0
BBX 3 12 0 0
BITMAP
40
A0
00
40
40
40
40
40
40
40
40
40
ENDCHAR
STARTCHAR Idieresis
ENCODING 236
SWIDTH 278 0
DWIDTH 3 0
BBX 3 12 0 0
BITMAP
A0
00
40
40
40
40
40
40
40
40
40
40
ENDCHAR
STARTCHAR Igrave
ENCODING 237
SWIDTH 278 0
DWIDTH 3 0
BBX 1 12 1 0
BITMAP
80
80
00
80
80
80
80
80
80
80
80
80
ENDCHAR
STARTCHAR Oacute
ENCODING 238
SWIDTH 891 0
DWIDTH 11 0
BBX 9 12 1 0
BITMAP
0400
0800
0000
3E00
6300
C180
8080
8080
8080
C180
6300
3E00
ENDCHAR
STARTCHAR Ocircumflex
ENCODING 239
SWIDTH 891 0
DWIDTH 11 0
BBX 9 12 1 0
BITMAP
0800
1400
0000
3E00
6300
C180
8080
8080
8080
C180
6300
3E00
ENDCHAR
STARTCHAR Ograve
ENCODING 241
SWIDTH 891 0
DWIDTH 11 0
BBX 9 12 1 0
BITMAP
1000
0800
0000
3E00
6300
C180
8080
8080
8080
C180
6300
3E00
ENDCHAR
STARTCHAR Uacute
ENCODING 242
SWIDTH 748 0
DWIDTH 9 0
BBX 7 12 1 0
BITMAP
08
10
00
82
82
82
82
82
82
82
C6
3C
ENDCHAR
STARTCHAR Ucircumflex
ENCODING 243
SWIDTH 748 0
DWIDTH 9 0
BBX 7 12 1 0
BITMAP
10
28
00
82
82
82
82
82
82
82
C6
3C
ENDCHAR
STARTCHAR Ugrave
ENCODING 244
SWIDTH 748 0
DWIDTH 9 0
BBX 7 12 1 0
BITMAP
20
10
00
82
82
82
82
82
82
82
C6
3C
ENDCHAR
STARTCHAR circumflex
ENCODING 246
SWIDTH 500 0
DWIDTH 6 0
BBX 3 2 2 7
BITMAP
40
A0
ENDCHAR
STARTCHAR tilde
ENCODING 247
SWIDTH 500 0
DWIDTH 6 0
BBX 3 2 2 7
BITMAP
E0
A0
ENDCHAR
STARTCHAR macron
ENCODING 248
SWIDTH 500 0
DWIDTH 6 0
BBX 3 1 1 8
BITMAP
E0
ENDCHAR
STARTCHAR cedilla
ENCODING 252
SWIDTH 500 0
DWIDTH 6 0
BBX 3 3 2 -3
BITMAP
40
20
E0
ENDCHAR
ENDFONT
